<?xml version="1.0" encoding="utf-8"?>
<!DOCTYPE svg PUBLIC "-//W3C//DTD SVG 1.0//EN" "http://www.w3.org/TR/2001/REC-SVG-20010904/DTD/svg10.dtd">
<svg version="1.0" xmlns="http://www.w3.org/2000/svg" width="1024px" height="1024px" viewBox="0 0 1024 1024" preserveAspectRatio="xMidYMid meet">
 <g fill="#ffffff">
  <path d="M0 512 l0 -512 512 0 512 0 0 512 0 512 -512 0 -512 0 0 -512z m275.50 223.70 c2.05 -0.40 4.90 -0.95 6.25 -1.20 2.90 -0.50 6.90 -1.75 12.50 -4 24.30 -9.60 43 -30.80 49.95 -56.55 5.20 -19.35 2.75 -39.10 -7.35 -58.45 -6.60 -12.65 -17.15 -24.15 -29.80 -32.40 -4.35 -2.80 -12.30 -6.80 -14.85 -7.40 -0.80 -0.20 -1.65 -0.50 -1.95 -0.70 -0.65 -0.45 -6.85 -2.25 -10 -2.95 -7.45 -1.55 -16.80 -2 -24.10 -1.05 -5.10 0.65 -9.65 1.50 -10.90 2 -0.55 0.20 -2.35 0.80 -4 1.25 -4.90 1.45 -10.10 3.65 -14.40 6.10 -4.60 2.65 -10.45 6.50 -12.35 8.15 -0.70 0.60 -2.50 2.10 -4 3.40 -4.45 3.80 -7.35 7.05 -12.20 13.60 -5.85 7.95 -11.95 21.35 -13.85 30.50 -2.65 12.75 -2.60 23.30 0.15 35 1.20 5.25 2.90 10.60 3.45 11.25 0.25 0.25 0.45 0.75 0.45 1.10 0 0.85 4.20 9.60 5.75 11.80 0.70 1.05 1.25 2 1.25 2.15 0 0.35 2.75 4.30 4.25 6.15 8.90 10.90 17 17.70 28.30 23.65 8.15 4.30 13.45 6.10 25.45 8.60 4.70 0.95 17.35 1 22 0z m494 -0.20 c4.90 -0.90 14.70 -3.75 15.75 -4.50 0.30 -0.20 1.50 -0.75 2.75 -1.20 2.55 -1 13.60 -7.10 14.90 -8.30 0.45 -0.40 2.10 -1.70 3.65 -2.85 6.50 -4.95 14.50 -13.90 18.95 -21.15 5 -8.25 9.40 -18.50 11.05 -26 1.85 -8.30 2.35 -22.10 1.05 -29.75 -0.70 -4.05 -2.05 -10.30 -2.55 -11.50 -0.25 -0.55 -1.15 -3 -2.05 -5.50 -2.55 -7.15 -6.80 -15.25 -10.35 -19.75 -4.30 -5.50 -8.55 -10.25 -10.95 -12.25 -1.60 -1.40 -3.75 -3.25 -4.70 -4.10 -0.95 -0.90 -2.15 -1.80 -2.60 -1.95 -0.50 -0.15 -0.90 -0.45 -0.90 -0.70 0 -0.25 -0.45 -0.60 -1 -0.75 -0.55 -0.15 -1.30 -0.60 -1.60 -0.90 -1.55 -1.50 -9.70 -5.90 -14.15 -7.65 -1.90 -0.75 -3.70 -1.55 -4 -1.75 -0.25 -0.25 -0.85 -0.45 -1.35 -0.45 -0.50 0 -1.30 -0.20 -1.80 -0.50 -1.10 -0.60 -6.85 -1.95 -11.10 -2.60 -4.40 -0.70 -18.90 -0.70 -23.50 0 -4.55 0.70 -10.20 2.10 -14.25 3.60 -1.65 0.60 -3.45 1.20 -4 1.40 -0.55 0.15 -3 1.30 -5.50 2.60 -17.30 8.95 -30.35 22.20 -38.25 38.75 -3.40 7.20 -3.85 8.35 -5.95 15.50 -2.25 7.70 -3.15 19.65 -2.10 28.55 0.60 5.30 3.30 16.40 4.85 20.20 7.50 17.95 18.25 31.05 33.75 41.15 8.35 5.45 19.25 10.05 27.95 11.75 1.50 0.30 3.65 0.80 4.75 1.05 3.90 0.90 17.75 0.65 23.25 -0.45z m-619.40 -73.10 c0 -0.10 0.25 -5.45 0.45 -11.90 0.45 -13.35 1 -17.80 3.20 -26.50 1.10 -4.50 2.85 -10.15 3.25 -10.75 0.20 -0.25 0.50 -1.10 0.70 -1.90 0.30 -1.20 1.20 -3.45 3.50 -8.35 6.45 -14 19.35 -30.35 31.60 -40 5 -3.95 10 -7.50 10.50 -7.50 0.15 0 1.20 -0.65 2.35 -1.40 1.15 -0.80 4 -2.40 6.35 -3.55 2.35 -1.20 4.80 -2.45 5.50 -2.80 4.05 -2.15 13.80 -5.50 19.50 -6.75 1.50 -0.35 3.15 -0.80 3.60 -1.05 0.50 -0.25 1.65 -0.45 2.55 -0.45 0.90 0 1.85 -0.20 2.15 -0.45 1.10 -1.10 25.65 -1.95 31.70 -1.05 9.65 1.35 22.90 4.65 28 6.85 0.95 0.40 2.20 0.95 2.75 1.15 11.70 4.80 22.80 11.80 32.50 20.50 2.50 2.25 3 2.75 8.20 8.25 5 5.25 11.65 14.10 14.35 19 1.40 2.60 3.70 6.80 4.15 7.60 0.80 1.55 3.15 6.80 3.90 8.90 0.40 1.10 0.95 2.45 1.15 3 0.55 1.35 2.25 6.50 2.90 9 2.85 10.60 3.60 16.60 3.75 29.60 l0.10 10.65 131.55 0 131.55 0 0.30 -11.40 c0.40 -14.05 1.80 -22.45 5.90 -35.25 1.15 -3.60 4.35 -11.60 5.45 -13.60 0.45 -0.80 1.80 -3.30 3 -5.50 6.05 -11.20 16.90 -24.20 27 -32.40 2.05 -1.70 3.85 -3.20 4 -3.35 0.45 -0.50 9.20 -6.30 11.50 -7.60 11.25 -6.40 19.05 -9.55 31.50 -12.65 4.45 -1.15 6.20 -1.45 15.35 -2.75 8 -1.10 24.35 -0.35 32.40 1.50 2.20 0.50 5.25 1.20 6.75 1.55 3.65 0.80 14.30 4.30 16.50 5.45 0.95 0.45 3.35 1.60 5.25 2.55 19.30 9.20 36.25 24.65 47.55 43.45 11.40 18.85 17.20 40.30 17.20 63.35 l0 6.65 13.70 0 c8.65 0 13.85 -0.20 14.05 -0.50 0.15 -0.30 1.15 -0.50 2.15 -0.50 5.70 0 18.35 -6.30 24.15 -12 6.60 -6.45 12.35 -16.40 14.75 -25.25 2.20 -8.35 2.80 -23.50 1.70 -44.75 -1.30 -25.60 -1.55 -30.20 -2 -37.25 -0.90 -12.90 -1.55 -19.35 -2.50 -24.15 -1 -5 -2.90 -11.55 -3.60 -12.30 -0.20 -0.30 -0.40 -0.85 -0.40 -1.25 0 -1.15 -5.45 -11.70 -8 -15.55 -4.30 -6.50 -12.60 -15.40 -19.25 -20.65 -10.35 -8.15 -18.65 -12.30 -35.75 -17.85 -7 -2.25 -13.10 -4.25 -13.50 -4.40 -0.40 -0.15 -2.20 -0.70 -4 -1.20 -1.80 -0.55 -4 -1.15 -4.85 -1.45 -3.70 -1.05 -5.50 -1.55 -7.15 -1.95 -0.95 -0.20 -5.80 -1.40 -10.75 -2.65 -4.95 -1.25 -12.05 -2.95 -15.75 -3.85 -3.70 -0.85 -7.45 -1.75 -8.30 -2 -0.85 -0.30 -1.95 -0.50 -2.45 -0.50 -0.50 0 -1.60 -0.20 -2.45 -0.45 -1.55 -0.50 -2.35 -0.65 -12.30 -2.55 -7.70 -1.45 -9.80 -2 -11.95 -3.05 -3 -1.40 -7.45 -5.80 -14.45 -14.15 -3.45 -4.15 -6.50 -7.60 -6.70 -7.70 -0.20 -0.10 -0.40 -0.40 -0.40 -0.70 0 -0.30 -0.95 -1.60 -2.10 -2.95 -1.20 -1.30 -2.35 -2.65 -2.65 -3.05 -0.25 -0.35 -1.75 -2.25 -3.30 -4.15 -1.50 -1.95 -3.80 -4.85 -5.10 -6.50 -1.30 -1.65 -3.90 -5 -5.85 -7.50 -1.95 -2.45 -4.50 -5.75 -5.65 -7.25 -1.20 -1.50 -4.70 -6.10 -7.85 -10.25 -3.10 -4.10 -5.80 -7.60 -5.95 -7.75 -0.20 -0.15 -2.45 -3.05 -5.05 -6.50 -2.55 -3.45 -7.65 -9.95 -11.25 -14.50 -3.60 -4.55 -7.65 -9.70 -9 -11.50 -11.80 -15.55 -27.10 -30.85 -40.55 -40.65 -1.45 -1 -2.85 -1.85 -3.15 -1.85 -0.30 0 -0.55 -0.20 -0.55 -0.40 0 -0.60 -5.25 -3.45 -11.65 -6.30 -3.30 -1.55 -11.75 -4.45 -16.60 -5.75 -0.80 -0.25 -2.40 -0.65 -3.50 -0.95 -6.90 -1.90 -19.80 -3.45 -31.75 -3.85 -10.55 -0.30 -212.20 -0.35 -220.75 0 -7.35 0.25 -17.90 1.20 -20.25 1.75 -0.95 0.20 -4.45 0.90 -7.75 1.50 -3.30 0.60 -6.65 1.30 -7.50 1.55 -6.55 1.90 -15.20 4.60 -16 4.90 -0.55 0.25 -2.25 0.95 -3.75 1.55 -19.60 7.65 -33.60 16.65 -47 30.10 -8.30 8.35 -9.95 10.30 -16.90 19.90 -2.50 3.45 -5.50 7.60 -6.70 9.20 -1.20 1.60 -4.30 6.05 -6.90 9.80 -2.60 3.80 -5.90 8.55 -7.30 10.60 -2.55 3.60 -3.30 4.70 -8.35 11.85 -1.45 2 -2.80 4.05 -3.10 4.45 -0.25 0.45 -0.65 1.05 -0.90 1.30 -1.05 1.50 -5.80 8.35 -7.10 10.30 -0.80 1.25 -1.65 2.35 -1.80 2.50 -0.20 0.15 -6 8.80 -12.95 19.25 -6.95 10.45 -13.50 20.15 -14.60 21.55 -2.15 2.85 -3.75 3.65 -9.65 4.70 -8.75 1.55 -19.95 5.85 -29.25 11.15 -3.95 2.25 -14.75 9.95 -15.10 10.75 -0.10 0.20 -0.75 0.85 -1.50 1.40 -3.40 2.65 -12.70 13.85 -15.65 18.95 -0.80 1.40 -1.85 3.20 -2.35 4 -1.45 2.50 -4.65 9.40 -5.85 12.75 -0.35 0.95 -0.85 2.20 -1.10 2.75 -0.50 1.20 -2.10 7.40 -2.90 11.50 -0.35 1.65 -0.80 4 -1.10 5.25 -0.55 2.70 -2.15 16.65 -2.90 25.75 -0.60 7.10 -1.35 14.65 -2.05 21.25 -1.90 18.15 -2.50 28.25 -2.50 41.50 0 14.40 0.80 20.75 3.50 27.75 0.20 0.55 0.60 1.55 0.85 2.25 2.15 5.65 7.55 14.55 11.70 19.20 1.15 1.30 3.70 3.75 5.65 5.35 4.45 3.75 4.70 3.95 4.95 3.95 0.15 0 1.55 0.80 3.10 1.75 1.60 0.95 3.95 2.10 5.20 2.55 1.25 0.45 2.75 1 3.30 1.20 1.60 0.60 4.80 1.40 7.75 1.90 2.40 0.40 21.35 0.80 21.60 0.50z"/>
  <path d="M245 424.55 c0 -1.50 1.15 -4.20 4.80 -11.40 2.65 -5.15 5.25 -10.20 5.75 -11.20 0.50 -0.95 3.40 -6.15 6.50 -11.50 3.05 -5.35 6.05 -10.50 6.60 -11.45 0.50 -0.95 1.35 -2.30 1.85 -3 0.50 -0.70 2.25 -3.55 3.95 -6.40 3.60 -6.10 12.45 -19.40 15 -22.60 3.30 -4.20 5.95 -7 10.40 -11.15 6.35 -5.85 7.50 -6.85 11.15 -9.30 1.80 -1.25 3.35 -2.40 3.50 -2.55 0.30 -0.35 11 -6.50 11.30 -6.50 0.10 0 1.30 -0.45 2.60 -1.05 9.20 -4.10 17.70 -6.25 33.60 -8.50 2.85 -0.45 14.80 -0.70 36.40 -0.85 l32.10 -0.15 0 59.75 0 59.80 -92.75 0 -92.75 0 0 -1.95z"/>
  <path d="M469 366.75 l0 -59.75 52.65 0.05 c28.90 0.05 54.85 0.25 57.60 0.50 10.60 0.85 17.95 2.15 26.25 4.50 4.85 1.40 13.40 5.25 17.45 7.85 5.85 3.75 13.20 10.30 17.85 15.85 2.10 2.55 17.85 23.35 20 26.50 1.65 2.45 36 48.15 40.60 54.10 4.30 5.55 5.10 6.85 5.10 8.35 l0 1.80 -118.75 0 -118.75 0 0 -59.75z"/>
 </g>
 <g fill="#2abfb6">
  <path d="M252 737.20 c-12 -2.50 -17.30 -4.30 -25.45 -8.60 -11.30 -5.95 -19.40 -12.75 -28.30 -23.65 -1.50 -1.85 -4.25 -5.80 -4.25 -6.15 0 -0.15 -0.55 -1.10 -1.25 -2.15 -1.55 -2.20 -5.75 -10.95 -5.75 -11.80 0 -0.35 -0.20 -0.85 -0.45 -1.10 -0.55 -0.65 -2.25 -6 -3.45 -11.25 -1.55 -6.65 -2.10 -11.65 -2.10 -19.50 0.05 -15.45 3.45 -27.80 11.95 -43.25 1.95 -3.55 8.45 -12 12.05 -15.70 0.70 -0.70 2.50 -2.35 4 -3.65 1.50 -1.30 3.30 -2.80 4 -3.40 1.90 -1.65 7.75 -5.50 12.35 -8.15 4.30 -2.45 9.50 -4.65 14.40 -6.10 1.65 -0.45 3.45 -1.05 4 -1.25 0.55 -0.25 2.60 -0.70 4.50 -1 1.95 -0.30 4.20 -0.75 5 -0.95 2.55 -0.60 17.25 -0.65 21.75 -0.10 6.35 0.85 15.20 3 16.75 4.05 0.30 0.20 1.15 0.50 1.95 0.70 2.55 0.60 10.50 4.60 14.85 7.40 9.25 6.05 18.65 15.10 24.50 23.55 14.25 20.65 18.95 46.90 12.65 70.30 -5.30 19.75 -17.75 37.20 -34.45 48.40 -8.05 5.40 -20.75 10.90 -28 12.15 -1.35 0.25 -4.20 0.80 -6.25 1.20 -4.75 1 -20.20 1 -25 0z"/>
  <path d="M744.75 737.45 c-1.10 -0.25 -3.25 -0.75 -4.75 -1.05 -8.70 -1.70 -19.60 -6.30 -27.95 -11.75 -15.50 -10.10 -26.25 -23.20 -33.75 -41.15 -1.55 -3.75 -4.25 -14.90 -4.85 -20.15 -0.75 -6.35 -0.30 -21.35 0.75 -26.10 1 -4.50 3.10 -11.70 4.30 -14.50 8.55 -20.55 21.95 -35.25 41.25 -45.25 2.50 -1.30 4.95 -2.45 5.50 -2.60 0.55 -0.20 2.35 -0.80 4 -1.40 3.85 -1.40 11.55 -3.35 15.15 -3.85 3.40 -0.45 21.15 -0.45 25.25 0.05 1.65 0.15 3.30 0.50 3.75 0.75 0.50 0.20 2.30 0.70 4.10 1.05 1.80 0.35 3.45 0.85 3.70 1.05 0.30 0.25 0.95 0.45 1.55 0.45 0.60 0 1.25 0.20 1.55 0.45 0.25 0.20 2.05 1 3.95 1.75 4.45 1.75 12.60 6.15 14.15 7.65 0.30 0.30 1.05 0.75 1.60 0.90 0.55 0.15 1 0.50 1 0.75 0 0.25 0.40 0.55 0.90 0.70 0.45 0.15 1.65 1.05 2.60 1.95 0.95 0.85 3.10 2.70 4.70 4.10 2.40 2 6.65 6.75 10.95 12.25 3.55 4.50 7.80 12.60 10.35 19.75 0.90 2.50 1.80 4.95 2.05 5.50 0.45 1.15 1.80 7.15 2.60 11.50 0.65 3.80 0.65 23.55 -0.05 27.50 -1.90 10.90 -5.80 20.90 -12.10 31.25 -4.45 7.25 -12.45 16.20 -18.95 21.15 -1.55 1.15 -3.20 2.45 -3.65 2.85 -1.30 1.20 -12.35 7.30 -14.90 8.30 -1.25 0.45 -2.45 1 -2.75 1.20 -1.05 0.75 -10.85 3.60 -15.75 4.50 -4 0.80 -7 1 -14.65 0.95 -5.30 -0.05 -10.50 -0.25 -11.60 -0.50z"/>
  <path d="M510.25 664.10 l-133 -0.10 -0.10 -10.65 c-0.10 -12.90 -0.85 -18.85 -3.75 -29.60 -0.65 -2.50 -2.35 -7.65 -2.90 -9 -0.20 -0.55 -0.75 -1.90 -1.15 -3 -0.75 -2.10 -3.10 -7.35 -3.90 -8.90 -0.45 -0.80 -2.75 -5 -4.15 -7.60 -2.70 -4.90 -9.35 -13.75 -14.35 -19 -5.20 -5.50 -5.70 -6 -8.20 -8.25 -9.70 -8.70 -20.80 -15.70 -32.50 -20.50 -0.55 -0.20 -1.80 -0.75 -2.75 -1.15 -4.85 -2.15 -16.80 -5.10 -27.55 -6.80 -4.50 -0.75 -16.60 -0.65 -22.70 0.15 -2.75 0.40 -5.25 0.60 -5.55 0.45 -0.35 -0.10 -0.75 0 -0.95 0.30 -0.15 0.30 -1.10 0.55 -2.05 0.55 -0.95 0 -2.10 0.20 -2.60 0.45 -0.45 0.25 -2.10 0.70 -3.60 1.05 -2.75 0.60 -3.85 0.90 -8 2.20 -2.75 0.85 -9.80 3.65 -11.50 4.55 -0.70 0.35 -3.15 1.60 -5.50 2.80 -2.35 1.15 -5.20 2.75 -6.35 3.55 -1.15 0.75 -2.20 1.40 -2.35 1.40 -0.50 0 -5.50 3.55 -10.50 7.50 -12.25 9.65 -25.15 26 -31.60 40 -2 4.25 -3.10 6.90 -3.40 8 -0.20 0.70 -0.55 1.70 -0.80 2.25 -0.90 2 -2.40 7.10 -3.45 12 -0.65 2.75 -1.35 5.70 -1.60 6.55 -0.25 0.85 -0.45 2.45 -0.45 3.60 0 1.10 -0.20 2.60 -0.50 3.30 -0.25 0.70 -0.50 6.35 -0.50 12.55 l-0.05 11.30 -12.10 -0.20 c-6.65 -0.15 -13.20 -0.45 -14.60 -0.75 -1.35 -0.30 -3.25 -0.70 -4.15 -0.90 -0.90 -0.15 -1.75 -0.50 -1.90 -0.75 -0.15 -0.25 -0.65 -0.45 -1.10 -0.45 -1.20 0 -8.25 -3.50 -11.35 -5.60 -1.95 -1.35 -7.95 -6.70 -9.70 -8.70 -4.10 -4.65 -9.75 -13.90 -11.65 -19.05 -0.20 -0.65 -0.60 -1.65 -0.85 -2.25 -0.65 -1.60 -1.95 -6.15 -2.60 -9.15 -0.35 -1.40 -0.70 -8.95 -0.80 -17.25 -0.30 -16.20 0.15 -24.45 2.35 -45.75 0.85 -7.95 1.10 -10.85 1.30 -13.50 0.80 -10.60 3.10 -31.50 3.70 -33.50 0.25 -0.80 0.50 -2.40 0.60 -3.50 0.05 -1.10 0.25 -2.35 0.45 -2.75 0.20 -0.40 0.85 -2.90 1.45 -5.50 0.60 -2.60 1.25 -4.95 1.45 -5.25 0.20 -0.25 0.65 -1.40 1 -2.50 1.05 -3 4.35 -10.25 5.95 -13 0.50 -0.80 1.55 -2.60 2.35 -4 2.95 -5.10 12.25 -16.30 15.65 -18.95 0.75 -0.55 1.40 -1.20 1.50 -1.40 0.35 -0.80 11.15 -8.50 15.10 -10.75 9.30 -5.30 20.50 -9.60 29.25 -11.15 5.90 -1.05 7.50 -1.85 9.65 -4.70 1.10 -1.40 7.65 -11.10 14.60 -21.55 6.95 -10.45 12.75 -19.10 12.95 -19.25 0.15 -0.15 1 -1.25 1.80 -2.50 1.30 -1.95 6.05 -8.80 7.10 -10.30 0.25 -0.25 0.65 -0.85 0.90 -1.30 0.30 -0.40 1.65 -2.45 3.10 -4.45 5.05 -7.15 5.80 -8.25 8.35 -11.85 1.40 -2.05 4.70 -6.80 7.30 -10.60 2.60 -3.75 5.70 -8.20 6.90 -9.80 1.20 -1.60 4.20 -5.75 6.70 -9.20 6.95 -9.60 8.60 -11.55 16.90 -19.90 11.75 -11.80 24.90 -20.75 40.25 -27.35 3.30 -1.40 3.90 -1.65 6.75 -2.75 1.50 -0.60 3.20 -1.30 3.75 -1.55 1 -0.40 13.05 -4.10 16.25 -4.95 4.65 -1.25 13.25 -2.85 19.25 -3.50 14.30 -1.65 14.75 -1.65 144.75 -1.55 86.20 0.05 100.20 0.20 108.50 1.10 5.50 0.60 15.35 2.25 18.25 3.05 1.10 0.30 2.70 0.70 3.50 0.95 4.85 1.30 13.30 4.20 16.60 5.75 6.40 2.85 11.65 5.70 11.65 6.30 0 0.20 0.25 0.40 0.55 0.40 0.65 0 3.70 2.20 10.45 7.45 5.40 4.20 18.45 17.20 25.10 25.05 5.10 6 4.85 5.65 8.15 10 1.35 1.80 5.40 6.95 9 11.50 3.60 4.55 8.70 11.05 11.25 14.50 2.60 3.45 4.85 6.35 5.05 6.50 0.15 0.15 2.85 3.65 5.95 7.75 3.15 4.15 6.65 8.75 7.85 10.25 1.15 1.50 3.70 4.80 5.65 7.25 1.95 2.50 4.55 5.85 5.85 7.50 1.30 1.65 3.60 4.55 5.10 6.50 1.55 1.90 3.05 3.80 3.30 4.15 0.30 0.40 1.45 1.75 2.65 3.05 1.15 1.35 2.10 2.65 2.10 2.95 0 0.30 0.20 0.60 0.40 0.70 0.20 0.05 3.25 3.55 6.70 7.70 9.50 11.30 12.95 14.20 18.65 15.65 2.25 0.55 7.35 1.55 9.25 1.75 0.70 0.10 1.60 0.30 2 0.45 0.40 0.15 1.65 0.40 2.75 0.60 1.10 0.20 2.90 0.55 4 0.75 1.10 0.25 2.70 0.60 3.50 0.75 0.85 0.15 2.30 0.50 3.25 0.75 0.95 0.25 4.80 1.15 8.50 2 3.70 0.85 10.80 2.60 15.75 3.85 4.95 1.25 9.80 2.45 10.75 2.65 1.65 0.40 3.45 0.90 7.15 1.95 0.85 0.30 3.05 0.90 4.85 1.45 1.80 0.50 3.60 1.05 4 1.20 0.40 0.15 6.50 2.15 13.50 4.40 17.10 5.55 25.40 9.70 35.75 17.85 6.65 5.25 14.95 14.15 19.25 20.65 2.55 3.85 8 14.40 8 15.55 0 0.40 0.20 0.95 0.40 1.25 0.70 0.75 2.60 7.30 3.60 12.30 0.95 4.80 1.60 11.25 2.50 24.15 0.45 7.05 0.70 11.65 2 37.25 0.75 14.45 0.60 33.65 -0.25 39.75 -1.65 11.90 -5.25 20.20 -12.65 29.25 -3.70 4.50 -4.65 5.30 -11.10 9.65 -4.70 3.15 -16.20 7.40 -17.60 6.55 -0.25 -0.15 -0.75 -0.05 -1.10 0.25 -0.40 0.35 -5.90 0.55 -15.75 0.55 l-15.15 0.05 -0.10 -7.90 c-0.10 -9.50 -0.50 -14.65 -1.55 -20.50 -2.95 -15.90 -7.75 -28.90 -15.45 -41.65 -11.30 -18.80 -28.25 -34.25 -47.55 -43.45 -1.90 -0.95 -4.30 -2.10 -5.25 -2.55 -2.20 -1.15 -12.85 -4.65 -16.50 -5.45 -1.50 -0.35 -4.55 -1.05 -6.75 -1.55 -7.95 -1.85 -21.90 -2.55 -29.40 -1.50 -9.15 1.30 -10.90 1.60 -15.35 2.75 -12.45 3.10 -20.25 6.25 -31.50 12.65 -2.30 1.30 -11.05 7.10 -11.50 7.60 -0.15 0.15 -1.95 1.65 -4 3.35 -10.10 8.20 -20.95 21.20 -27 32.40 -1.20 2.20 -2.55 4.70 -3 5.50 -3.85 7 -9.45 25.60 -10.45 34.75 -0.65 5.95 -1 14 -0.80 19.10 0.10 3.50 0.05 6.45 -0.15 6.50 -0.20 0.10 -60.20 0.10 -133.35 0z m-81.25 -297.40 l0 -58.25 -30.60 0.20 c-30.50 0.20 -33.55 0.35 -43.65 2.15 -2.20 0.40 -4.60 0.80 -5.30 0.90 -1.60 0.30 -9.95 2.60 -12.95 3.60 -2.55 0.90 -3.25 1.15 -6.60 2.65 -1.30 0.60 -2.50 1.05 -2.60 1.05 -0.30 0 -11 6.15 -11.30 6.50 -0.15 0.15 -1.70 1.30 -3.50 2.55 -3.65 2.45 -4.80 3.45 -11.15 9.30 -4.45 4.15 -7.10 6.95 -10.40 11.15 -2.55 3.20 -11.40 16.50 -15 22.60 -1.70 2.85 -3.45 5.70 -3.95 6.40 -0.50 0.70 -1.35 2.05 -1.85 3 -0.55 0.95 -3.55 6.10 -6.60 11.45 -3.10 5.35 -6 10.55 -6.50 11.50 -0.50 1 -3.10 6.05 -5.75 11.20 -2.65 5.20 -4.80 9.65 -4.80 9.90 0 0.25 35.95 0.45 91.25 0.45 l91.25 0 0 -58.30z m276 58 c0 -0.15 -2.30 -3.25 -5.10 -6.85 -4.60 -5.95 -38.95 -51.65 -40.60 -54.10 -2.15 -3.15 -17.90 -23.95 -20 -26.50 -6.25 -7.45 -14.45 -14.20 -22.35 -18.35 -8.30 -4.40 -18.75 -7.45 -30.45 -8.95 -9.15 -1.20 -17.20 -1.35 -65.10 -1.40 l-50.90 -0.05 0 58.25 0 58.25 117.25 0 c64.50 0 117.25 -0.15 117.25 -0.30z"/>
 </g>
</svg>